<svg id="Layer_1" data-name="Layer 1" xmlns="http://www.w3.org/2000/svg" viewBox="0 0 448.33 94.05"><defs><style>.cls-1{fill-rule:evenodd;}</style></defs><title>Smeg-Logo</title><path class="cls-1" d="M202.77,21.64c-.94-3.76-2.35-8-11.29-8s-10.35,3.3-10.35,6.12c0,9.88,40,2.82,40,25.87,0,18.35-17.88,21.64-27.76,21.64-14.58,0-30.11-4.7-30.58-21.64h17.41c0,5.18,3.29,8.94,13.64,8.94,8.47,0,10.82-4.23,10.82-6.59,0-10.35-39.51-2.35-39.51-25.87,0-8.94,5.64-20.7,25.87-20.7,12.23,0,27.28,2.82,28.7,20.7H202.77Z"/><path class="cls-1" d="M314.73,64.92H297.8V27.28c0-9.4-4.24-12.23-8.94-12.23-8.47,0-11.29,5.18-11.29,12.71V64.92H261.1V27.28c0-5.17,0-12.7-9.88-12.7-8,0-10.35,5.18-10.35,12.23V64.92H223.94V2.82h16v8.94h.47C242.29,8,247,.94,258.28.94c9.41,0,13.17,3.29,17.88,9.88C278.51,8,282.74.94,293.09.94,305.32.94,315.2,8,315.2,21.64V64.92Z"/><path class="cls-1" d="M380.12,47C375.89,62.1,363.18,66.8,352.37,66.8c-17.88,0-31.52-8.47-31.52-33.87,0-7.53,2.82-31.52,30.57-31.52,12.71,0,30.11,5.65,30.11,34.34v2.82H337.78c.47,4.71,1.41,15.06,15.06,15.06,4.7,0,9.4-2.35,10.82-6.59ZM363.66,27.76c-1-9.88-7.53-13.18-12.71-13.18-8,0-12.23,4.71-13.17,13.18Z"/><path class="cls-1" d="M448.33.94V57.86c0,10.35-.94,27.76-32,27.76-13.17,0-26.81-5.18-27.75-17.88h18.34c.95,2.82,1.89,6.12,11.76,6.12,8.94,0,13.18-4.24,13.18-13.65V53.16h-.47c-2.83,4.7-7.06,8.94-16.94,8.94-15.52,0-27.28-9.88-27.28-31,0-20.7,12.23-31,26.34-31C425.28,0,430,6.59,432.34,10.35h.47V.94ZM417.28,47.51c11.29,0,14.12-8.94,14.12-17.4,0-9.88-5.18-17.41-14.12-17.41-6.11,0-13.17,4.24-13.17,18.35,0,7.52,3.29,16.46,13.17,16.46"/><path class="cls-1" d="M40.47,64.92A20.07,20.07,0,0,1,20.25,85.15,20.08,20.08,0,0,1,0,64.92C-.45,53.63,9,44.22,20.25,44.22c10.81,0,20.22,9.41,20.22,20.7"/><path class="cls-1" d="M80.93,64.92a20.23,20.23,0,0,1-40.46,0c0-11.29,8.94-20.7,20.23-20.7s20.23,9.41,20.23,20.7"/><path class="cls-1" d="M121.86,64.92a20.23,20.23,0,1,1-20.23-20.23c11.29-.47,20.23,8.94,20.23,20.23"/><path class="cls-1" d="M80.93,24a20.23,20.23,0,0,1-40.46,0,20.23,20.23,0,0,1,40.46,0"/><path class="cls-1" d="M121.86,24A20.23,20.23,0,0,1,81.4,24a20.23,20.23,0,0,1,40.46,0"/><path class="cls-1" d="M162.78,24a20.23,20.23,0,1,1-40.45,0A20.08,20.08,0,0,1,142.56,3.76,20.37,20.37,0,0,1,162.78,24"/><path d="M305.07,73.42h2.75V91.74h10.92v2.31H305.07Z"/><path d="M321.25,73.42H324V94.05h-2.75Z"/><path d="M328.62,73.42h8.93c.5,0,1,0,1.49.09a12,12,0,0,1,1.4.22,3.36,3.36,0,0,1,1.12.43,5.23,5.23,0,0,1,1.72,1.69,4.67,4.67,0,0,1,.71,2.61,5,5,0,0,1-.81,2.85,4.82,4.82,0,0,1-2.25,1.78v.06a4.75,4.75,0,0,1,2.92,1.73,5.21,5.21,0,0,1,1,3.23,6.13,6.13,0,0,1-.41,2.2,5.53,5.53,0,0,1-1.2,1.89,5.86,5.86,0,0,1-2,1.33,6.7,6.7,0,0,1-2.7.51h-10Zm2.74,8.87h5.49a5.48,5.48,0,0,0,3.37-.82,3,3,0,0,0,1-2.48,3.63,3.63,0,0,0-.35-1.71,2.42,2.42,0,0,0-.95-1,3.9,3.9,0,0,0-1.41-.45,12.91,12.91,0,0,0-1.69-.1h-5.49Zm0,9.45h6.88a3.94,3.94,0,0,0,2.83-1,3.53,3.53,0,0,0,1-2.7,3.4,3.4,0,0,0-.37-1.68,3,3,0,0,0-1-1,4.22,4.22,0,0,0-1.43-.55,8.4,8.4,0,0,0-1.68-.16h-6.27Z"/><path d="M356.93,85.61v8.44h-2.74V85.61l-8-12.19h3.26l6.18,9.82,6-9.82h3.12Z"/><path d="M370.6,73.42h3l8.06,20.63h-3l-2.25-6.21h-8.73l-2.31,6.21h-2.83Zm-2.05,12.1h7L372.1,75.9h-.05Z"/></svg>