<svg id="Layer_1" data-name="Layer 1" xmlns="http://www.w3.org/2000/svg" viewBox="0 0 223.73 111.85"><defs><style>.cls-1{fill-rule:evenodd;}</style></defs><title>Smeg-Logo</title><path class="cls-1" d="M55.63,84.05a27.6,27.6,0,0,1-27.81,27.8A27.6,27.6,0,0,1,0,84.05C-.62,68.53,12.31,55.6,27.82,55.6c14.88,0,27.81,12.93,27.81,28.45"/><path class="cls-1" d="M111.23,84.05a27.8,27.8,0,0,1-55.6,0c0-15.52,12.28-28.45,27.8-28.45s27.8,12.93,27.8,28.45"/><path class="cls-1" d="M167.48,84.05a27.8,27.8,0,1,1-27.8-27.8c15.51-.65,27.8,12.28,27.8,27.8"/><path class="cls-1" d="M111.23,27.8a27.8,27.8,0,1,1-55.6,0,27.8,27.8,0,1,1,55.6,0"/><path class="cls-1" d="M167.48,27.8a27.8,27.8,0,1,1-55.6,0,27.8,27.8,0,1,1,55.6,0"/><path class="cls-1" d="M223.73,27.8a27.8,27.8,0,1,1-55.6,0A27.59,27.59,0,0,1,195.93,0a28,28,0,0,1,27.8,27.8"/></svg>