<svg id="Layer_1" data-name="Layer 1" xmlns="http://www.w3.org/2000/svg" viewBox="0 0 686.53 171.29"><defs><style>.cls-1{fill:#fff;}</style></defs><title>Aslam white</title><g id="layer101"><path class="cls-1" d="M60.14,145.62A61.42,61.42,0,0,1,40.63,139c-5.87-3.43-12.58-11.25-16.74-19.51C20,111.75,12.53,90.91,8.31,75.89,3.66,59.59,0,39.69,0,30.77,0,21.18,1.77,19,9.81,19c6.1,0,13.3,1.94,32.32,8.59,27.44,9.64,35.42,11.8,44.84,12a22.65,22.65,0,0,1,5,.49c0,.45-7.49,3.39-11.64,4.61-3.83,1.16-14,1.21-18.3.11-1.66-.39-7-1.89-11.86-3.33-16.79-4.93-24.67-6.15-28-4.38S18,41.35,18.07,49.78c.11,8.87,1.44,17,5.49,33.31,5.6,22.73,9.42,31.54,17,38.81,6,5.82,12.47,8.42,22,8.92,13.31.72,23.89-2,43.07-11.09,11-5.21,15.19-6.59,20.35-6.65,6,0,11.53,2.28,17.85,7.6,2.27,1.94,1.49,2.21-2,.66a26.52,26.52,0,0,0-18.35-1.49c-5.54,1.44-10.42,3.93-21.51,11.08s-20,11.7-25.88,13.25C71.84,145.34,63.47,146.12,60.14,145.62Z"/><path class="cls-1" d="M90,116.63c-3.1-1.88-5.76-6.15-12.19-19.35-3.44-7.09-7.32-14.46-8.6-16.35L67,77.5l3.21,3.32a95.61,95.61,0,0,1,7.37,9.42c10.2,15,15.53,17,21.46,8.21,4.1-6.21,8.59-19.46,13.13-39.14,4.88-20.78,5.71-33,2.78-38.69-2.44-4.82-9.71-4.27-32.32,2.33C72.39,26,70.56,26.39,64.8,26.61a36.91,36.91,0,0,1-19.4-3.88l-4.1-1.89,5.26-.05c9.65-.11,18.63-2.5,44.29-11.59,19.68-7,27.44-9.09,33.65-9.2,5.27,0,7.65,1,9.26,4.05.88,1.66,1,2.88.72,9.14-.61,15.19-7.1,43-15.08,64.42-7.59,20.45-14.8,33.75-20.57,38.19C96.17,117.79,92.4,118.18,90,116.63Z"/></g><g id="layer102"><path class="cls-1" d="M50.5,170.62c-7.76-2.22-15.3-8.59-21.56-18.24-4.38-6.76-11-21.45-13.81-30.82-.94-3-.61-2.71,3.44,3.88,7.32,11.81,14.08,19.4,21.62,24.34,7.31,4.82,13.69,6.54,22.12,6,10-.66,18-4,38.35-16.35C118,129,122,127.11,129.38,126a21.07,21.07,0,0,1,11.14,1.49c2.22,1.17,6.26,4.44,6.93,5.66.5.94.33,1-2,.5-3.11-.67-10.81.22-16.24,1.88-5.94,1.83-10.26,4.38-27.83,16.13-17,11.37-25,15.86-32.32,18.13C63.86,171.4,54.71,171.78,50.5,170.62Z"/></g><path class="cls-1" d="M191.13,121c0,8.64-5.64,13.88-14.8,13.88h-8.67V107h8.67C185.49,107,191.13,112.37,191.13,121Zm-14.8,10.88c7.28,0,11.08-4.08,11.08-10.88s-3.8-11-11.08-11h-5v21.91Z"/><path class="cls-1" d="M205.89,135.24c-6.23,0-10.83-4.4-10.83-11.36s4.44-11.27,10.83-11.27,10.52,4.48,10.52,10.47a19.73,19.73,0,0,1-.12,2.2H198.78a6.88,6.88,0,0,0,7.11,6.88c3.28,0,5.36-1.68,6.16-4H216C214.85,132.12,211.33,135.24,205.89,135.24Zm-7.07-12.92h13.83c0-4.28-3.16-6.63-6.92-6.63C202.17,115.69,199.21,118,198.82,122.32Z"/><path class="cls-1" d="M237.73,122.48c0-4.47-2.44-6.75-6.12-6.75s-6.28,2.31-6.28,7v12.12h-3.64V113h3.64v3.12a8.1,8.1,0,0,1,7-3.52c5.08,0,9,3.12,9,9.39v12.92h-3.6Z"/><path class="cls-1" d="M248.57,116h-2.83v-3h2.83v-5.52h3.64V113h5.72v3h-5.72v12.91c0,2.16.8,2.92,3,2.92h2.68v3.08h-3.28c-3.88,0-6.08-1.6-6.08-6Z"/><path class="cls-1" d="M271.85,112.61A9.1,9.1,0,0,1,280,117v-4h3.68v21.91H280V130.8a9.15,9.15,0,0,1-8.2,4.44c-5.84,0-10.35-4.6-10.35-11.4S266,112.61,271.85,112.61Zm.72,3.16c-4,0-7.4,2.92-7.4,8.07s3.4,8.2,7.4,8.2,7.44-3,7.44-8.16S276.57,115.77,272.57,115.77Z"/><path class="cls-1" d="M290.33,105.29H294v29.59h-3.64Z"/><path class="cls-1" d="M325,113a3.19,3.19,0,0,0-3.4-3.52,3.24,3.24,0,0,0-3.56,3.2c0,1.64.92,3,2.88,5.08l8.32,8.35c.24-.36.48-.72.72-1.12l2.72-4.56h3.92l-3.28,5.68c-.52.92-1,1.72-1.6,2.52l6.28,6.28h-4.76l-3.64-3.68a12.49,12.49,0,0,1-9.6,4.16c-5.8,0-9.76-3.32-9.76-8.48,0-3.84,2.2-6.92,6.56-8.64-1.72-2-2.4-3.55-2.4-5.59,0-3.56,2.84-6.2,7.36-6.2s7.08,2.8,6.88,6.52Zm2.2,15.83-8.2-8.24c-3.48,1.32-5.12,3.4-5.12,6.2,0,3.12,2.48,5.48,6.12,5.48A9.16,9.16,0,0,0,327.17,128.8Z"/><path class="cls-1" d="M353,107.21h3.92l10.24,22.87,10.24-22.87h3.88v27.67h-3.64V114.25l-9.2,20.63h-2.56l-9.24-20.67v20.67H353Z"/><path class="cls-1" d="M397.41,135.24c-6.24,0-10.84-4.4-10.84-11.36s4.44-11.27,10.84-11.27,10.52,4.48,10.52,10.47a19.73,19.73,0,0,1-.12,2.2H390.29a6.89,6.89,0,0,0,7.12,6.88c3.28,0,5.36-1.68,6.16-4h3.92C406.37,132.12,402.85,135.24,397.41,135.24Zm-7.08-12.92h13.84c0-4.28-3.16-6.63-6.92-6.63C393.69,115.69,390.73,118,390.33,122.32Z"/><path class="cls-1" d="M422.29,112.61a9.56,9.56,0,0,1,8.12,4.28v-11.6h3.68v29.59h-3.68v-4.12a9,9,0,0,1-8.16,4.48c-5.88,0-10.4-4.6-10.4-11.4S416.37,112.61,422.29,112.61Zm.68,3.16c-4,0-7.4,2.92-7.4,8.07S419,132,423,132s7.44-3,7.44-8.16S427,115.77,423,115.77Z"/><path class="cls-1" d="M440.13,106.93a2.44,2.44,0,1,1,2.48,2.48A2.44,2.44,0,0,1,440.13,106.93Zm.6,6h3.64v21.91h-3.64Z"/><path class="cls-1" d="M460.37,112.61c5.44,0,9,2.8,10.12,7.39h-3.92c-.76-2.64-3-4.31-6.2-4.31-4,0-7,2.83-7,8.19s3,8.28,7,8.28c3.24,0,5.4-1.56,6.2-4.32h3.92c-1.12,4.36-4.68,7.4-10.12,7.4-6.24,0-10.68-4.4-10.68-11.36S454.13,112.61,460.37,112.61Z"/><path class="cls-1" d="M484.85,112.61A9.1,9.1,0,0,1,493,117v-4h3.68v21.91H493V130.8a9.15,9.15,0,0,1-8.2,4.44c-5.84,0-10.36-4.6-10.36-11.4S479,112.61,484.85,112.61Zm.72,3.16c-4,0-7.4,2.92-7.4,8.07s3.4,8.2,7.4,8.2,7.44-3,7.44-8.16S489.57,115.77,485.57,115.77Z"/><path class="cls-1" d="M503.33,105.29H507v29.59h-3.64Z"/><path class="cls-1" d="M533.65,135.16c-5.6,0-9.56-3.12-9.64-7.72h3.88c.24,2.32,1.88,4.64,5.76,4.64,3.52,0,5.6-2,5.6-4.64,0-7.52-15.08-2.72-15.08-13.07,0-4.6,3.72-7.72,9.24-7.72,5.32,0,8.8,2.92,9.24,7.16h-4c-.24-1.88-2-4-5.4-4-3-.08-5.36,1.48-5.36,4.48,0,7.19,15,2.72,15,13C542.93,131.24,539.69,135.16,533.65,135.16Z"/><path class="cls-1" d="M568.21,134.88h-3.64v-3.24a8.06,8.06,0,0,1-7,3.56c-5,0-9-3.12-9-9.4V113h3.6v12.35c0,4.44,2.44,6.72,6.12,6.72s6.28-2.32,6.28-7V113h3.64Z"/><path class="cls-1" d="M586.69,112.61c5.88,0,10.4,4.4,10.4,11.23s-4.52,11.4-10.4,11.4a9.48,9.48,0,0,1-8.2-4.4v14.44h-3.64V113h3.64v4A9.26,9.26,0,0,1,586.69,112.61Zm-.76,3.16c-4,0-7.44,3-7.44,8.11S582,132,585.93,132s7.44-3,7.44-8.2S590,115.77,585.93,115.77Z"/><path class="cls-1" d="M614.21,112.61c5.88,0,10.4,4.4,10.4,11.23s-4.52,11.4-10.4,11.4a9.48,9.48,0,0,1-8.2-4.4v14.44h-3.64V113H606v4A9.26,9.26,0,0,1,614.21,112.61Zm-.76,3.16c-4,0-7.44,3-7.44,8.11s3.48,8.16,7.44,8.16,7.44-3,7.44-8.2S617.49,115.77,613.45,115.77Z"/><path class="cls-1" d="M629.89,105.29h3.64v29.59h-3.64Z"/><path class="cls-1" d="M639.61,106.93a2.44,2.44,0,1,1,2.48,2.48A2.44,2.44,0,0,1,639.61,106.93Zm.6,6h3.64v21.91h-3.64Z"/><path class="cls-1" d="M660,135.24c-6.24,0-10.84-4.4-10.84-11.36s4.44-11.27,10.84-11.27,10.52,4.48,10.52,10.47a19.73,19.73,0,0,1-.12,2.2H652.89a6.89,6.89,0,0,0,7.12,6.88c3.28,0,5.36-1.68,6.16-4h3.92C669,132.12,665.45,135.24,660,135.24Zm-7.08-12.92h13.84c0-4.28-3.16-6.63-6.92-6.63C656.29,115.69,653.33,118,652.93,122.32Z"/><path class="cls-1" d="M679.45,134.88h-3.64V113h3.64v3.55c1.24-2.43,3.6-4,7.08-4v3.75h-1c-3.48,0-6.12,1.57-6.12,6.64Z"/><path class="cls-1" d="M213.17,76.65h-30.4l-5.6,14.24h-9.6l25.2-63.68h10.5l25.1,63.68h-9.6ZM198,37.5l-12.6,32.35h25.2Z"/><path class="cls-1" d="M261.47,91.54c-14,0-23.9-7.17-24.1-17.74h9.7c.6,5.33,4.7,10.66,14.4,10.66,8.8,0,14-4.59,14-10.66,0-17.28-37.7-6.25-37.7-30,0-10.57,9.3-17.74,23.1-17.74,13.3,0,22,6.71,23.1,16.45H274c-.6-4.32-5-9.19-13.5-9.28-7.5-.18-13.4,3.4-13.4,10.29,0,16.55,37.6,6.25,37.6,30C284.67,82.53,276.57,91.54,261.47,91.54Z"/><path class="cls-1" d="M307.17,26.84V84.09h24.4v6.8h-33.5v-64Z"/><path class="cls-1" d="M382.47,76.65h-30.4l-5.6,14.24h-9.6l25.2-63.68h10.5l25.1,63.68h-9.6ZM367.27,37.5l-12.6,32.35h25.2Z"/><path class="cls-1" d="M408.67,27.3h9.8l25.6,52.57,25.6-52.57h9.7V90.89h-9.1V43.47l-23,47.42h-6.4l-23.1-47.51V90.89h-9.1Z"/><path class="cls-1" d="M552.87,26c15.1,0,27.1,7,32.3,19.39h-10.9c-3.8-7.72-11.2-12-21.4-12-14.6,0-25.5,9.74-25.5,25.45s10.9,25.36,25.5,25.36c10.2,0,17.6-4.31,21.4-11.94h10.9c-5.2,12.31-17.2,19.2-32.3,19.2-19.5,0-34.8-13.41-34.8-32.62S533.37,26,552.87,26Z"/><path class="cls-1" d="M630.27,91.54c-19.6,0-35-13.51-35-32.72s15.4-32.71,35-32.71,35,13.5,35,32.71S650,91.54,630.27,91.54Zm0-7.26c14.7,0,25.7-9.84,25.7-25.46s-11-25.45-25.7-25.45-25.7,9.74-25.7,25.45S615.57,84.28,630.27,84.28Z"/><path class="cls-1" d="M686.47,81.24v9.65h-9.2V81.24Z"/></svg>